<svg width="2893" height="1067" viewBox="0 0 2893 1067" fill="none" xmlns="http://www.w3.org/2000/svg">
<rect x="2195" y="653" width="698" height="356" fill="white"/>
<rect x="1736" y="641" width="469" height="127" fill="white"/>
<rect x="1908" y="758" width="297" height="118" fill="white"/>
<rect x="2068" y="859" width="137" height="92" fill="white"/>
<rect x="336" y="479" width="936" height="139" fill="white"/>
<rect x="1370" y="474" width="1523" height="183" fill="white"/>
<rect width="2893" height="504" fill="white"/>
<path d="M0 401.321V503.052L63.3876 534.298C98.1357 551.407 137.991 570.975 151.71 577.634C343.675 671.168 496.787 720.548 641.387 735.505C680.341 739.603 733.614 740.628 772.067 738.271C838.66 733.969 889.53 725.978 1024.92 698.317C1143.88 673.934 1186.14 666.763 1242.72 660.923C1276.57 657.338 1299.3 656.211 1333.84 656.211C1404.24 656.211 1460.02 665.021 1527.01 686.535C1611.83 713.889 1693.04 753.126 1841.55 838.568C2014.08 937.839 2080.68 972.159 2156.98 1001.25C2256.52 1039.16 2356.86 1059.44 2477.63 1066C2502.66 1067.33 2580.07 1067.33 2606.7 1066C2668.19 1062.93 2697.73 1059.96 2819.1 1045C2858.05 1040.18 2890.6 1036.29 2891.4 1036.29C2892.8 1036.29 2893 1032.5 2893 1002.48C2893 983.838 2892.6 968.676 2892.2 968.676C2891.7 968.676 2867.46 972.364 2838.32 976.872C2694.73 999.205 2671.09 1002.18 2599.09 1006.68C2574.36 1008.22 2507.17 1008.22 2483.43 1006.68C2322.01 996.234 2197.64 956.792 2062.35 873.195C2005.37 837.953 1957.31 804.862 1849.06 726.387C1789.57 683.257 1736.3 646.273 1698.85 622.198C1572.47 540.957 1481.85 503.871 1385.42 493.832C1348.97 490.041 1301.4 490.758 1256.64 495.88C1196.45 502.744 1153.19 511.862 1025.32 544.543C944.406 565.237 919.571 571.179 879.216 579.273C816.329 591.771 774.771 596.279 724.001 596.074C679.94 595.972 655.506 593.923 613.849 586.956C512.909 570.052 410.468 533.376 288.899 470.781C234.324 442.608 197.473 421.094 84.617 351.634C38.8537 323.461 1.20166 300.308 0.801108 300.001C0.300415 299.796 0 345.385 0 401.321Z" fill="#009BD0"/>
</svg>
