<svg xmlns="http://www.w3.org/2000/svg" width="2893" height="1067" fill="none"><path fill="#fff" d="M2195 653h698v356h-698z"/><path fill="#fff" d="M1736 641h469v127h-469z"/><path fill="#fff" d="M1908 758h297v118h-297z"/><path fill="#fff" d="M2068 859h137v92h-137zM336 479h936v139H336zM1370 474h1523v183H1370z"/><path fill="#fff" d="M0 0h2893v504H0z"/><path fill="#009BD0" d="M0 401.321v101.731l63.388 31.246c34.748 17.109 74.603 36.677 88.322 43.336 191.965 93.534 345.077 142.914 489.677 157.871 38.954 4.098 92.227 5.123 130.68 2.766 66.593-4.302 117.463-12.293 252.853-39.954 118.96-24.383 161.22-31.554 217.8-37.394 33.85-3.585 56.58-4.712 91.12-4.712 70.4 0 126.18 8.81 193.17 30.324 84.82 27.354 166.03 66.591 314.54 152.033 172.53 99.271 239.13 133.591 315.43 162.682 99.54 37.91 199.88 58.19 320.65 64.75 25.03 1.33 102.44 1.33 129.07 0 61.49-3.07 91.03-6.04 212.4-21 38.95-4.82 71.5-8.71 72.3-8.71 1.4 0 1.6-3.79 1.6-33.81 0-18.642-.4-33.804-.8-33.804-.5 0-24.74 3.688-53.88 8.196-143.59 22.333-167.23 25.308-239.23 29.808-24.73 1.54-91.92 1.54-115.66 0-161.42-10.446-285.79-49.888-421.08-133.485-56.98-35.242-105.04-68.333-213.29-146.808-59.49-43.13-112.76-80.114-150.21-104.189-126.38-81.241-217-118.327-313.43-128.366-36.45-3.791-84.02-3.074-128.78 2.048-60.19 6.864-103.45 15.982-231.32 48.663-80.914 20.694-105.749 26.636-146.104 34.73-62.887 12.498-104.445 17.006-155.215 16.801-44.061-.102-68.495-2.151-110.152-9.118-100.94-16.904-203.381-53.58-324.95-116.175-54.575-28.173-91.426-49.687-204.282-119.147C38.854 323.461 1.202 300.308.801 300.001c-.5-.205-.801 45.384-.801 101.32Z"/></svg>