<svg xmlns="http://www.w3.org/2000/svg" xml:space="preserve" viewBox="0 0 998 1080"><path fill="#FFF" d="M519.469 1081c-.947-.663-1.336-1.814-1.915-1.918-23.13-4.166-42.87-24.731-46.616-47.525-3.643-22.161 1.546-41.496 18.1-56.914 9.741-9.072 21.333-15.12 35.085-15.62 12.245-.445 24.497-.74 36.747-1.011 17.25-.381 34.503-.945 51.754-.94 19.185.004 33.688 9.52 45.291 23.981 2.081 2.594 3.867 3.296 7 2.562 20.791-4.873 40.473-12.705 58.974-23.186 15.21-8.615 30.035-18.038 42.557-30.45 10.275-10.186 20.837-20.204 30.03-31.323 7.76-9.386 14.597-19.793 20.292-30.567 7.32-13.85 14.003-28.193 19.254-42.931 4.56-12.8 6.748-26.446 9.967-39.722.152-.63.06-1.318.213-1.948 2.257-9.323 1.385-10.73-6.401-15.561-22.617-14.033-37.354-34.193-43.563-59.939-2.981-12.36-3.264-25.158-.436-37.964 1.888-8.552 2.461-17.433 3.142-26.204 1.513-19.49 2.897-38.993 3.993-58.51.678-12.065 1.128-24.172.954-36.25-.184-12.844-.783-25.719-2.003-38.503-1.532-16.042-3.999-31.993-5.828-48.01-.947-8.3-2.147-16.68-1.907-24.985.55-19.057 7.012-36.29 18.4-51.575 8.054-10.81 17.962-19.669 30.304-27.086-6.495-13.714-12.783-27.408-19.426-40.929-11.692-23.797-25.696-46.293-42.247-66.902-13.284-16.54-27.74-32.318-43.027-47.028-20.245-19.479-42.83-36.09-67.315-50.201-26.032-15.003-53.397-26.695-82.306-34.342-15.728-4.16-32.075-6.22-48.26-8.34-11.394-1.493-23.03-2.45-34.477-1.923-15.29.703-30.535 2.822-45.74 4.794-21.489 2.788-42.249 8.94-62.079 17.272-17.26 7.252-34.095 15.942-50.069 25.713-15.403 9.422-30.148 20.232-43.917 31.924-13.195 11.204-24.881 24.21-37.019 36.63-14.378 14.713-26.157 31.483-37.559 48.521-15.34 22.924-28.22 47.17-38.7 72.676-3.467 8.437-6.307 17.134-9.889 25.519-1.242 2.908-.485 4.36 1.315 6.448 12.266 14.222 20.391 30.33 22.95 49.202 1.791 13.203.376 26.028-1.913 39.013-1.754 9.949-1.94 20.164-3.222 30.21-3.976 31.17-3.242 62.493-2.767 93.763.246 16.188 2.327 32.36 3.837 48.515 1.488 15.926 3.95 31.787 4.809 47.74 1.07 19.889-5.373 37.975-16.743 54.127-15.138 21.505-36.002 34.289-61.69 39.788-19.568 4.19-38.192 1.444-55.837-7.13-28.412-13.804-47.197-36.026-54.406-67.01-2.967-12.752-4.505-25.876-6.07-38.906-1.735-14.453-3.154-28.969-3.991-43.498-1.075-18.647-1.609-37.33-2.04-56.007-.306-13.308-.57-26.655.072-39.94.775-16.033 2.462-32.024 3.878-48.023.878-9.925 1.725-19.865 3.049-29.736 2.336-17.411 4.081-35.107 12.622-50.88 6.51-12.02 14.545-22.924 25.388-31.77 9.27-7.565 19.143-13.599 30.464-17.332 2.739-.903 5.53-2.783 8.174-2.582 4.544.345 4.774-2.681 5.928-5.44 8.167-19.508 15.979-39.179 24.695-58.44 11.423-25.243 25.83-48.874 41.797-71.466 9.273-13.12 19.466-25.614 29.639-38.067 7.37-9.021 14.82-18.111 23.242-26.109 14.588-13.851 29.652-27.243 45.067-40.17 25.725-21.572 54.383-38.638 84.718-52.886 21.235-9.973 43.205-18.108 66.009-23.594 17.708-4.261 35.618-7.777 53.559-10.94 8.683-1.531 17.635-1.612 26.479-2.13 8.409-.494 16.87-1.349 25.247-.906 20.07 1.06 40.106 2.221 60.032 5.644 24.847 4.267 49.032 10.565 72.66 19.199 22.208 8.114 43.784 17.743 64.154 29.687 16.512 9.682 32.672 20.098 48.226 31.25 20.984 15.045 40.33 32.18 58.085 50.95 16.493 17.436 31.798 35.883 45.854 55.396 18.513 25.698 34.961 52.632 47.94 81.469 9.521 21.155 17.451 43.031 25.858 64.676 1.156 2.977 2.716 4.837 5.275 6.72 19.07 14.024 33.462 31.537 38.796 55.18 2.415 10.702 4.36 21.534 5.956 32.39 1.99 13.534 3.462 27.146 5.03 40.74.546 4.728.847 9.494 1.02 14.252.418 11.415.695 22.836 1.028 34.254.333 11.419 1.09 22.844.9 34.254-.28 16.844-.834 33.705-2.016 50.506-1.135 16.122-2.76 32.243-5.023 48.244-2.01 14.208-4.252 28.514-8.122 42.29-3.77 13.418-11.308 25.115-20.884 35.643-15.444 16.979-34.64 26.454-56.679 31.06-.32.067-.664.02-.99.069-2.738.411-6.399-.084-7.964 1.495-1.737 1.753-1.589 5.396-2.215 8.226-2.642 11.944-5.118 23.926-7.928 35.83-5.172 21.909-14.332 42.357-25.406 61.71-8.546 14.936-18.957 28.886-29.368 42.648-6.634 8.77-14.521 16.652-22.303 24.479-15.792 15.881-33.843 28.937-52.912 40.562-19.124 11.66-39.5 20.663-60.871 27.348-6.89 2.155-13.985 3.653-20.873 5.814-1.67.524-3.74 2.238-4.193 3.817-6.915 24.091-23.128 38.52-47.053 43.756-9.213 2.016-19.098.916-28.67 1.36-1.694.08-3.358.775-4.733 1.57-22.385.383-45.072.383-68.228.383z"/></svg>