<svg xmlns="http://www.w3.org/2000/svg" xml:space="preserve" viewBox="0 0 1844 980"><path fill="#DFB0B0" d="M1271.468 981c-1.298-.666-2.067-1.812-2.967-1.927-15.928-2.033-29.778-8.48-41.936-18.939-11.432-9.834-18.904-21.93-22.616-36.545-3.972-15.64-2.072-30.876 3.18-45.718 7.04-19.897 16.78-38.32 31.373-53.92 10.138-10.838 20.33-21.658 29.886-33 9.973-11.837 19.261-24.254 28.763-36.484 16.457-21.181 34.277-41.206 54.235-59.06 18.643-16.68 38.46-32.042 57.719-48.036 12.347-10.253 24.597-20.623 36.925-30.898 13.704-11.42 27.537-22.687 41.145-34.22 10.78-9.136 21.268-18.616 31.954-27.865 14.27-12.35 28.622-24.605 42.904-36.94 7.958-6.874 15.678-14.035 23.803-20.704 15.403-12.644 30.67-25.5 46.663-37.365 11.94-8.86 24.672-16.748 37.524-24.26 16.077-9.395 34.093-13.767 52.027-18.106 10.06-2.433 20.24-4.417 30.206-7.18 7.528-2.086 14.382.217 20.797 2.912 19.082 8.019 34.141 21.446 47.392 37.119 9.71 11.484 16.553 24.405 19.895 39.027 1.41 6.173 2.46 12.57 2.528 18.878.16 14.637 1.113 29.328-2.789 43.79-4.381 16.242-11 31.512-19.948 45.621a877.008 877.008 0 0 1-31.428 46.249c-6.927 9.52-15.037 18.193-22.784 27.1-6.164 7.088-12.287 14.255-18.958 20.85-9.756 9.645-19.948 18.852-30.028 28.165-6.9 6.376-13.828 12.728-20.92 18.888-11.266 9.786-22.687 19.394-34.029 29.093-9.352 7.996-18.495 16.25-28.07 23.97-14.09 11.357-28.096 22.887-42.841 33.35a1505.515 1505.515 0 0 1-62.95 42.328 1187.23 1187.23 0 0 1-59.665 35.558c-22.791 12.693-45.76 25.177-69.309 36.368-21.559 10.245-43.862 18.98-66.097 27.722-11.671 4.589-23.888 7.794-35.88 11.556-2.57.806-5.231 1.316-7.511 2.293-5.682.33-11.703.33-18.193.33zM935.47 18.22c7.875-1.56 15.38-2.906 22.87-4.336 12.894-2.46 25.87-2.943 38.81-.849 10.056 1.628 20.23 3.174 29.947 6.1 20.158 6.068 37.16 17.58 50.862 33.49 12.882 14.958 21.223 32.498 25.915 51.606 2.588 10.534 4.62 21.262 6.001 32.018 1.567 12.2 3.145 24.551 2.894 36.8-.409 19.963-2.135 39.862-5.614 59.65-6.428 36.553-14.403 72.755-25.326 108.175-8.693 28.19-18.66 56.034-29.248 83.575-7.243 18.838-16.211 37.044-24.987 55.254-8.649 17.948-17.92 35.599-27.12 53.276-6.43 12.357-14.068 24.162-19.59 36.897-6.53 15.068-11.184 30.94-16.979 46.34-7.794 20.716-17.104 40.475-31.88 57.533-17.568 20.282-39.054 33.33-64.755 40.444-10.73 2.97-21.241 4.32-31.715.706-22.91-7.904-38.227-24.024-47.496-46.083-5.681-13.523-9.409-27.654-7.845-42.374.823-7.745 3.378-15.427 6.008-22.832 3.99-11.232 5.957-22.659 5.8-34.535-.113-8.498-.444-17.024.067-25.493 1.029-17.05 2.26-34.101 3.983-51.094 1.595-15.742 3.484-31.483 6.076-47.086 2.787-16.783 6.21-33.48 9.95-50.082a4678.737 4678.737 0 0 1 19.982-85.027c7.847-32.03 16.363-63.896 24.1-95.951 4.442-18.412 7.79-37.085 11.863-55.59 3.548-16.117 6.826-32.33 11.296-48.198 6.077-21.574 13.26-42.848 23.744-62.777 7.12-13.537 17.244-24.054 32.388-29.557zM61.348 420.746c-8.297-6.383-16.408-12.413-24.257-18.767-17.143-13.877-30.252-30.174-33.246-53.142-1.472-11.291-.514-22.28 1.183-33.315 1.429-9.29 2.92-18.599 5.043-27.746 2.44-10.514 7.526-19.936 14.145-28.426 7.444-9.546 16.714-16.76 28.136-21.107 11.597-4.412 23.375-4.854 35.669-3.492 12.417 1.375 24.047 4.913 35.63 9.157 17.491 6.408 33.6 15.466 48.257 26.743 14.91 11.472 29.107 23.893 43.353 36.203 10.972 9.481 21.702 19.26 32.245 29.218 17.118 16.168 34.459 32.143 50.846 49.034 16.748 17.262 32.641 35.368 48.583 53.392 23.883 27.002 44.957 56.172 64.328 86.507 9.047 14.166 16.667 29.255 24.684 44.061 3.371 6.227 6.528 12.641 9.025 19.256 5.1 13.508 1.576 25.921-8.502 35.226-8.115 7.49-18.182 12.913-27.606 18.903-2.025 1.288-5.005 1.476-7.546 1.477-9.791.004-19.693.587-29.346-.656-13.144-1.693-23.95-9.347-34.668-16.606-11.95-8.095-23.693-16.495-35.573-24.696-29.098-20.085-58.287-40.04-87.313-60.229-17.457-12.14-34.748-24.525-51.96-37.01-5.032-3.648-9.675-7.87-14.26-12.086-10.468-9.624-20.402-19.868-31.267-29.01-14.218-11.965-29.093-23.151-43.758-34.58-3.698-2.882-7.672-5.411-11.825-8.31zM1219 616.005c-12.477 20.859-25.195 41.171-37.22 61.885-7.786 13.414-15.045 27.187-21.646 41.22-6.32 13.434-17.36 20.006-30.702 23.836-11.902 3.417-24.116 4.812-36.49 4.019-12.686-.813-23.238-5.708-31.516-15.826-5.268-6.437-8.993-13.405-11.488-21.217-3.037-9.509-2.59-18.92.015-28.458 4.807-17.597 8.376-35.602 14.293-52.808 7.651-22.25 16.409-44.189 25.958-65.698 10.281-23.156 23.771-44.7 39.356-64.633 11.131-14.238 23.489-27.645 36.34-40.372 10.514-10.413 23.59-16.792 39.103-15.933 11.408.632 21.138 5.333 29.975 12.396 13.007 10.395 17.385 24.55 17.977 40.36.267 7.15.12 14.321.03 21.481-.188 14.807-3.46 28.998-8.997 42.668-6.299 15.553-12.683 31.074-19.221 46.528-1.506 3.56-3.79 6.792-5.768 10.552zM575.435 630.977c-10.012-2.085-19.09-5.247-27.083-11.11-12.072-8.857-19.268-20.957-23.305-35.085-5.833-20.414-14.605-39.642-22.917-59.102-6.7-15.687-12.947-31.716-17.515-48.116-3.421-12.285-3.989-25.386-5.553-38.158-.7-5.713-1.213-11.528-.975-17.262.847-20.342 8.14-38.127 21.651-53.472 9.312-10.575 20.21-18.855 33.446-23.567 19.514-6.947 36.64-1.99 52.929 10.255 23.394 17.587 34.995 41.744 40.752 69.315 2.756 13.197 4.21 26.672 6.12 40.04 2.396 16.779 5.046 33.535 6.88 50.378 2.624 24.122 9.187 47.415 13.763 71.115 3.022 15.653-6.065 29.656-24.926 34.792-8.07 2.198-16.192 4.309-24.072 7.08-9.42 3.312-19.063 2.907-29.195 2.897z"/></svg>