<svg version="1.1" id="Layer_1" xmlns="http://www.w3.org/2000/svg" xmlns:xlink="http://www.w3.org/1999/xlink" x="0px" y="0px"
	 width="100%" viewBox="0 0 1844 980" enable-background="new 0 0 1844 980" xml:space="preserve">
<path fill="#000000" opacity="1.000000" stroke="none" 
	d="
M1271.000000,981.000000 
	C847.697205,981.000000 424.394440,981.000000 1.045835,981.000000 
	C1.045835,654.387451 1.045835,327.774933 1.045835,1.081204 
	C615.568176,1.081204 1230.136353,1.081204 1844.852295,1.081204 
	C1844.852295,327.544525 1844.852295,654.089111 1844.852295,981.000000 
	C1660.302612,981.000000 1475.604858,981.000000 1290.114380,980.670166 
	C1291.940796,979.693481 1294.602539,979.182617 1297.171875,978.376648 
	C1309.163940,974.614929 1321.380981,971.409668 1333.052124,966.821106 
	C1355.286621,958.079285 1377.590454,949.344055 1399.149170,939.098877 
	C1422.698120,927.907898 1445.666748,915.424316 1468.457642,902.731140 
	C1488.678589,891.469177 1508.596558,879.598816 1528.123901,867.173035 
	C1549.452026,853.601379 1570.455444,839.474304 1591.072510,824.845276 
	C1605.818481,814.381958 1619.823120,802.852112 1633.913696,791.494385 
	C1643.489258,783.775940 1652.632080,775.521423 1661.984009,767.524780 
	C1673.326172,757.826050 1684.747070,748.218018 1696.013428,738.432129 
	C1703.105225,732.272339 1710.032715,725.919678 1716.932861,719.544312 
	C1727.013306,710.230896 1737.205200,701.023926 1746.961304,691.378845 
	C1753.632446,684.783752 1759.754517,677.617493 1765.918945,670.529785 
	C1773.666016,661.622314 1781.776123,652.949646 1788.703125,643.428833 
	C1799.664917,628.362549 1810.152222,612.915771 1820.131470,597.180481 
	C1829.079468,583.071289 1835.697998,567.801331 1840.079346,551.558838 
	C1843.980591,537.097473 1843.027222,522.406067 1842.868164,507.769348 
	C1842.799561,501.461456 1841.750122,495.063629 1840.339600,488.891022 
	C1836.998291,474.268890 1830.155151,461.348450 1820.445435,449.863831 
	C1807.194336,434.190887 1792.135010,420.763580 1773.052979,412.745117 
	C1766.638428,410.049683 1759.784058,407.746582 1752.255737,409.833344 
	C1742.289551,412.595917 1732.109863,414.579895 1722.049683,417.013458 
	C1704.116455,421.351532 1686.100342,425.723541 1670.022949,435.119781 
	C1657.170654,442.631134 1644.439331,450.519562 1632.498535,459.378632 
	C1616.505737,471.244049 1601.238892,484.099548 1585.835938,496.743805 
	C1577.711304,503.413239 1569.991455,510.573578 1562.032715,517.447510 
	C1547.750854,529.783142 1533.398438,542.037170 1519.129395,554.387573 
	C1508.443481,563.636597 1497.955566,573.116943 1487.175171,582.253113 
	C1473.567017,593.785706 1459.733643,605.052124 1446.030273,616.472778 
	C1433.701538,626.747864 1421.451660,637.117554 1409.104980,647.371033 
	C1389.846802,663.364502 1370.028809,678.727783 1351.385864,695.406372 
	C1331.428467,713.261047 1313.607910,733.285522 1297.150879,754.467346 
	C1287.649170,766.696960 1278.361206,779.113525 1268.388428,790.950134 
	C1258.831787,802.292969 1248.640137,813.112549 1238.501709,823.950806 
	C1223.908936,839.550720 1214.169678,857.974487 1207.129028,877.870605 
	C1201.877075,892.712524 1199.977295,907.948059 1203.949341,923.589478 
	C1207.660889,938.203979 1215.133179,950.299805 1226.565430,960.133972 
	C1238.723145,970.592102 1252.572876,977.039612 1268.500610,979.072937 
	C1269.401123,979.187866 1270.169922,980.333862 1271.000000,981.000000 
M935.095703,18.395060 
	C920.327454,23.723257 910.203918,34.239849 903.083069,47.776928 
	C892.599670,67.706451 885.416260,88.980217 879.339111,110.553642 
	C874.869019,126.422211 871.591125,142.635498 868.043457,158.752731 
	C863.970276,177.257126 860.622314,195.930405 856.179077,214.342026 
	C848.443054,246.397461 839.926819,278.263947 832.079834,310.293457 
	C825.152100,338.570801 818.496582,366.918671 812.097961,395.320343 
	C808.357971,411.921265 804.934998,428.618622 802.147522,445.401825 
	C799.555969,461.005157 797.666748,476.746460 796.071594,492.488129 
	C794.349609,509.480804 793.117676,526.531738 792.088867,543.582397 
	C791.577881,552.050842 791.909119,560.576843 792.021851,569.074585 
	C792.179382,580.951111 790.212219,592.378296 786.222290,603.609924 
	C783.591614,611.015259 781.037415,618.696533 780.214478,626.441772 
	C778.650330,641.162231 782.377625,655.293213 788.059265,668.815735 
	C797.327881,690.875244 812.644348,706.995300 835.554932,714.899414 
	C846.028748,718.512878 856.539368,717.163086 867.270447,714.192749 
	C892.971008,707.078979 914.457153,694.031311 932.025879,673.748901 
	C946.801392,656.691040 956.110718,636.931763 963.905090,616.216248 
	C969.699585,600.815979 974.353333,584.944336 980.884949,569.876404 
	C986.405518,557.140930 994.043701,545.336487 1000.474182,532.979248 
	C1009.673096,515.302002 1018.945129,497.650513 1027.594116,479.702789 
	C1036.369507,461.492889 1045.338135,443.287170 1052.580933,424.448608 
	C1063.169434,396.907715 1073.135620,369.063538 1081.828735,340.874207 
	C1092.752075,305.453522 1100.726929,269.252441 1107.154907,232.698090 
	C1110.634277,212.911285 1112.360107,193.012466 1112.769165,173.048172 
	C1113.020142,160.800293 1111.442383,148.449738 1109.875244,136.249420 
	C1108.493652,125.492996 1106.461548,114.764580 1103.874390,104.230652 
	C1099.181519,85.122513 1090.841431,67.582741 1077.959106,52.625069 
	C1064.256836,36.715153 1047.254517,25.202986 1027.097168,19.134115 
	C1017.380249,16.208618 1007.205811,14.662817 997.150757,13.035197 
	C984.210388,10.940532 971.234192,11.423637 958.340637,13.884393 
	C950.850647,15.313857 943.344910,16.660715 935.095703,18.395060 
M61.653770,420.951965 
	C65.500969,423.643524 69.474548,426.172913 73.173080,429.055237 
	C87.837883,440.483521 102.713127,451.669861 116.931107,463.634247 
	C127.796387,472.777344 137.730301,483.021210 148.198013,492.645477 
	C152.783051,496.861084 157.426468,501.082855 162.457077,504.731506 
	C179.670303,517.216064 196.961014,529.600098 214.417633,541.741455 
	C243.444107,561.929871 272.632690,581.884949 301.730865,601.970337 
	C313.610657,610.170593 325.353912,618.570679 337.304443,626.665588 
	C348.021088,633.924683 358.828003,641.578613 371.971863,643.271606 
	C381.625000,644.515015 391.526917,643.932129 401.317902,643.928406 
	C403.858643,643.927429 406.839111,643.738586 408.864380,642.451172 
	C418.287781,636.460815 428.355499,631.038940 436.469849,623.547546 
	C446.547791,614.243347 450.071350,601.830444 444.971649,588.321594 
	C442.474609,581.706970 439.318115,575.293213 435.946686,569.066467 
	C427.929932,554.260437 420.309845,539.171448 411.263458,525.005249 
	C391.891510,494.669647 370.818054,465.499847 346.935425,438.498199 
	C330.993195,420.473999 315.099640,402.367889 298.352081,385.105896 
	C281.964783,368.215240 264.624359,352.240356 247.505814,336.071533 
	C236.962738,326.113434 226.232880,316.335205 215.260544,306.853851 
	C201.014694,294.543793 186.818222,282.123322 171.907761,270.650696 
	C157.251236,259.373505 141.142456,250.316162 123.651543,243.907669 
	C112.067970,239.663559 100.437523,236.125778 88.020615,234.750565 
	C75.726562,233.388901 63.948513,233.830551 52.352169,238.243011 
	C40.929703,242.589340 31.659580,249.804443 24.216354,259.350372 
	C17.596577,267.840210 12.511712,277.262421 10.071267,287.776001 
	C7.947999,296.923157 6.456811,306.231750 5.028141,315.521606 
	C3.331060,326.556702 2.373271,337.546021 3.845217,348.837494 
	C6.839197,371.804657 19.948080,388.101501 37.090923,401.979218 
	C44.939636,408.333038 53.050549,414.362946 61.653770,420.951965 
M1219.052002,615.628296 
	C1220.977661,612.245239 1223.260620,609.013489 1224.766968,605.453064 
	C1231.304932,589.998840 1237.689209,574.478333 1243.988159,558.924683 
	C1249.524414,545.254517 1252.797241,531.064026 1252.984375,516.256958 
	C1253.074951,509.097076 1253.222168,501.926849 1252.954590,494.775848 
	C1252.363159,478.966095 1247.985352,464.810730 1234.978271,454.415985 
	C1226.140747,447.353302 1216.410522,442.652466 1205.003174,442.020386 
	C1189.489990,441.160736 1176.414185,447.540436 1165.900024,457.952789 
	C1153.048706,470.679779 1140.691406,484.086975 1129.559692,498.325195 
	C1113.975220,518.258850 1100.485107,539.802124 1090.204468,562.957642 
	C1080.654663,584.467285 1071.897339,606.406128 1064.245850,628.656189 
	C1058.329346,645.861511 1054.760132,663.867004 1049.953369,681.463745 
	C1047.348022,691.001343 1046.900757,700.413391 1049.937866,709.921631 
	C1052.433105,717.733643 1056.158081,724.702026 1061.425537,731.139343 
	C1069.704468,741.257080 1080.255981,746.151917 1092.941406,746.964966 
	C1105.315918,747.758240 1117.529541,746.362854 1129.432007,742.946106 
	C1142.773438,739.116333 1153.814697,732.544006 1160.133789,719.110535 
	C1166.734741,705.077454 1173.994263,691.304138 1181.780884,677.890320 
	C1193.805298,657.175964 1206.522949,636.864014 1219.052002,615.628296 
M575.894409,630.995483 
	C585.566528,630.986633 595.210876,631.391602 604.630188,628.079468 
	C612.510071,625.308594 620.631409,623.197937 628.701721,621.000183 
	C647.563477,615.863647 656.650208,601.861084 653.627747,586.207642 
	C649.051575,562.507935 642.489380,539.214905 639.864319,515.093018 
	C638.031494,498.249969 635.380615,481.493958 632.984192,464.714905 
	C631.074829,451.346802 629.621399,437.872406 626.865417,424.674957 
	C621.107849,397.104279 609.507446,372.947174 586.112549,355.359619 
	C569.823792,343.114197 552.698303,338.157593 533.183899,345.104858 
	C519.948486,349.816681 509.049988,358.096680 499.738403,368.671814 
	C486.226257,384.017426 478.934296,401.801544 478.087372,422.144379 
	C477.848633,427.878235 478.362183,433.693359 479.061951,439.406128 
	C480.626343,452.177582 481.193573,465.278900 484.615265,477.563934 
	C489.183197,493.964417 495.429840,509.993011 502.129852,525.679688 
	C510.441711,545.140015 519.214050,564.368469 525.047424,584.782349 
	C529.084473,598.909851 536.280029,611.009766 548.352417,619.866577 
	C556.344299,625.729736 565.422729,628.892395 575.894409,630.995483 
z"/>
<path fill="#DFB0B0" opacity="1.000000" stroke="none" 
	d="
M1271.468262,981.000000 
	C1270.169922,980.333862 1269.401123,979.187866 1268.500610,979.072937 
	C1252.572876,977.039612 1238.723145,970.592102 1226.565430,960.133972 
	C1215.133179,950.299805 1207.660889,938.203979 1203.949341,923.589478 
	C1199.977295,907.948059 1201.877075,892.712524 1207.129028,877.870605 
	C1214.169678,857.974487 1223.908936,839.550720 1238.501709,823.950806 
	C1248.640137,813.112549 1258.831787,802.292969 1268.388428,790.950134 
	C1278.361206,779.113525 1287.649170,766.696960 1297.150879,754.467346 
	C1313.607910,733.285522 1331.428467,713.261047 1351.385864,695.406372 
	C1370.028809,678.727783 1389.846802,663.364502 1409.104980,647.371033 
	C1421.451660,637.117554 1433.701538,626.747864 1446.030273,616.472778 
	C1459.733643,605.052124 1473.567017,593.785706 1487.175171,582.253113 
	C1497.955566,573.116943 1508.443481,563.636597 1519.129395,554.387573 
	C1533.398438,542.037170 1547.750854,529.783142 1562.032715,517.447510 
	C1569.991455,510.573578 1577.711304,503.413239 1585.835938,496.743805 
	C1601.238892,484.099548 1616.505737,471.244049 1632.498535,459.378632 
	C1644.439331,450.519562 1657.170654,442.631134 1670.022949,435.119781 
	C1686.100342,425.723541 1704.116455,421.351532 1722.049683,417.013458 
	C1732.109863,414.579895 1742.289551,412.595917 1752.255737,409.833344 
	C1759.784058,407.746582 1766.638428,410.049683 1773.052979,412.745117 
	C1792.135010,420.763580 1807.194336,434.190887 1820.445435,449.863831 
	C1830.155151,461.348450 1836.998291,474.268890 1840.339600,488.891022 
	C1841.750122,495.063629 1842.799561,501.461456 1842.868164,507.769348 
	C1843.027222,522.406067 1843.980591,537.097473 1840.079346,551.558838 
	C1835.697998,567.801331 1829.079468,583.071289 1820.131470,597.180481 
	C1810.152222,612.915771 1799.664917,628.362549 1788.703125,643.428833 
	C1781.776123,652.949646 1773.666016,661.622314 1765.918945,670.529785 
	C1759.754517,677.617493 1753.632446,684.783752 1746.961304,691.378845 
	C1737.205200,701.023926 1727.013306,710.230896 1716.932861,719.544312 
	C1710.032715,725.919678 1703.105225,732.272339 1696.013428,738.432129 
	C1684.747070,748.218018 1673.326172,757.826050 1661.984009,767.524780 
	C1652.632080,775.521423 1643.489258,783.775940 1633.913696,791.494385 
	C1619.823120,802.852112 1605.818481,814.381958 1591.072510,824.845276 
	C1570.455444,839.474304 1549.452026,853.601379 1528.123901,867.173035 
	C1508.596558,879.598816 1488.678589,891.469177 1468.457642,902.731140 
	C1445.666748,915.424316 1422.698120,927.907898 1399.149170,939.098877 
	C1377.590454,949.344055 1355.286621,958.079285 1333.052124,966.821106 
	C1321.380981,971.409668 1309.163940,974.614929 1297.171875,978.376648 
	C1294.602539,979.182617 1291.940796,979.693481 1289.660767,980.670166 
	C1283.978882,981.000000 1277.957642,981.000000 1271.468262,981.000000 
z"/>
<path fill="#DFB0B0" opacity="1.000000" stroke="none" 
	d="
M935.470947,18.219902 
	C943.344910,16.660715 950.850647,15.313857 958.340637,13.884393 
	C971.234192,11.423637 984.210388,10.940532 997.150757,13.035197 
	C1007.205811,14.662817 1017.380249,16.208618 1027.097168,19.134115 
	C1047.254517,25.202986 1064.256836,36.715153 1077.959106,52.625069 
	C1090.841431,67.582741 1099.181519,85.122513 1103.874390,104.230652 
	C1106.461548,114.764580 1108.493652,125.492996 1109.875244,136.249420 
	C1111.442383,148.449738 1113.020142,160.800293 1112.769165,173.048172 
	C1112.360107,193.012466 1110.634277,212.911285 1107.154907,232.698090 
	C1100.726929,269.252441 1092.752075,305.453522 1081.828735,340.874207 
	C1073.135620,369.063538 1063.169434,396.907715 1052.580933,424.448608 
	C1045.338135,443.287170 1036.369507,461.492889 1027.594116,479.702789 
	C1018.945129,497.650513 1009.673096,515.302002 1000.474182,532.979248 
	C994.043701,545.336487 986.405518,557.140930 980.884949,569.876404 
	C974.353333,584.944336 969.699585,600.815979 963.905090,616.216248 
	C956.110718,636.931763 946.801392,656.691040 932.025879,673.748901 
	C914.457153,694.031311 892.971008,707.078979 867.270447,714.192749 
	C856.539368,717.163086 846.028748,718.512878 835.554932,714.899414 
	C812.644348,706.995300 797.327881,690.875244 788.059265,668.815735 
	C782.377625,655.293213 778.650330,641.162231 780.214478,626.441772 
	C781.037415,618.696533 783.591614,611.015259 786.222290,603.609924 
	C790.212219,592.378296 792.179382,580.951111 792.021851,569.074585 
	C791.909119,560.576843 791.577881,552.050842 792.088867,543.582397 
	C793.117676,526.531738 794.349609,509.480804 796.071594,492.488129 
	C797.666748,476.746460 799.555969,461.005157 802.147522,445.401825 
	C804.934998,428.618622 808.357971,411.921265 812.097961,395.320343 
	C818.496582,366.918671 825.152100,338.570801 832.079834,310.293457 
	C839.926819,278.263947 848.443054,246.397461 856.179077,214.342026 
	C860.622314,195.930405 863.970276,177.257126 868.043457,158.752731 
	C871.591125,142.635498 874.869019,126.422211 879.339111,110.553642 
	C885.416260,88.980217 892.599670,67.706451 903.083069,47.776928 
	C910.203918,34.239849 920.327454,23.723257 935.470947,18.219902 
z"/>
<path fill="#DFB0B0" opacity="1.000000" stroke="none" 
	d="
M61.348167,420.745850 
	C53.050549,414.362946 44.939636,408.333038 37.090923,401.979218 
	C19.948080,388.101501 6.839197,371.804657 3.845217,348.837494 
	C2.373271,337.546021 3.331060,326.556702 5.028141,315.521606 
	C6.456811,306.231750 7.947999,296.923157 10.071267,287.776001 
	C12.511712,277.262421 17.596577,267.840210 24.216354,259.350372 
	C31.659580,249.804443 40.929703,242.589340 52.352169,238.243011 
	C63.948513,233.830551 75.726562,233.388901 88.020615,234.750565 
	C100.437523,236.125778 112.067970,239.663559 123.651543,243.907669 
	C141.142456,250.316162 157.251236,259.373505 171.907761,270.650696 
	C186.818222,282.123322 201.014694,294.543793 215.260544,306.853851 
	C226.232880,316.335205 236.962738,326.113434 247.505814,336.071533 
	C264.624359,352.240356 281.964783,368.215240 298.352081,385.105896 
	C315.099640,402.367889 330.993195,420.473999 346.935425,438.498199 
	C370.818054,465.499847 391.891510,494.669647 411.263458,525.005249 
	C420.309845,539.171448 427.929932,554.260437 435.946686,569.066467 
	C439.318115,575.293213 442.474609,581.706970 444.971649,588.321594 
	C450.071350,601.830444 446.547791,614.243347 436.469849,623.547546 
	C428.355499,631.038940 418.287781,636.460815 408.864380,642.451172 
	C406.839111,643.738586 403.858643,643.927429 401.317902,643.928406 
	C391.526917,643.932129 381.625000,644.515015 371.971863,643.271606 
	C358.828003,641.578613 348.021088,633.924683 337.304443,626.665588 
	C325.353912,618.570679 313.610657,610.170593 301.730865,601.970337 
	C272.632690,581.884949 243.444107,561.929871 214.417633,541.741455 
	C196.961014,529.600098 179.670303,517.216064 162.457077,504.731506 
	C157.426468,501.082855 152.783051,496.861084 148.198013,492.645477 
	C137.730301,483.021210 127.796387,472.777344 116.931107,463.634247 
	C102.713127,451.669861 87.837883,440.483521 73.173080,429.055237 
	C69.474548,426.172913 65.500969,423.643524 61.348167,420.745850 
z"/>
<path fill="#DFB0B0" opacity="1.000000" stroke="none" 
	d="
M1218.999268,616.004883 
	C1206.522949,636.864014 1193.805298,657.175964 1181.780884,677.890320 
	C1173.994263,691.304138 1166.734741,705.077454 1160.133789,719.110535 
	C1153.814697,732.544006 1142.773438,739.116333 1129.432007,742.946106 
	C1117.529541,746.362854 1105.315918,747.758240 1092.941406,746.964966 
	C1080.255981,746.151917 1069.704468,741.257080 1061.425537,731.139343 
	C1056.158081,724.702026 1052.433105,717.733643 1049.937866,709.921631 
	C1046.900757,700.413391 1047.348022,691.001343 1049.953369,681.463745 
	C1054.760132,663.867004 1058.329346,645.861511 1064.245850,628.656189 
	C1071.897339,606.406128 1080.654663,584.467285 1090.204468,562.957642 
	C1100.485107,539.802124 1113.975220,518.258850 1129.559692,498.325195 
	C1140.691406,484.086975 1153.048706,470.679779 1165.900024,457.952789 
	C1176.414185,447.540436 1189.489990,441.160736 1205.003174,442.020386 
	C1216.410522,442.652466 1226.140747,447.353302 1234.978271,454.415985 
	C1247.985352,464.810730 1252.363159,478.966095 1252.954590,494.775848 
	C1253.222168,501.926849 1253.074951,509.097076 1252.984375,516.256958 
	C1252.797241,531.064026 1249.524414,545.254517 1243.988159,558.924683 
	C1237.689209,574.478333 1231.304932,589.998840 1224.766968,605.453064 
	C1223.260620,609.013489 1220.977661,612.245239 1218.999268,616.004883 
z"/>
<path fill="#DFB0B0" opacity="1.000000" stroke="none" 
	d="
M575.435486,630.977234 
	C565.422729,628.892395 556.344299,625.729736 548.352417,619.866577 
	C536.280029,611.009766 529.084473,598.909851 525.047424,584.782349 
	C519.214050,564.368469 510.441711,545.140015 502.129852,525.679688 
	C495.429840,509.993011 489.183197,493.964417 484.615265,477.563934 
	C481.193573,465.278900 480.626343,452.177582 479.061951,439.406128 
	C478.362183,433.693359 477.848633,427.878235 478.087372,422.144379 
	C478.934296,401.801544 486.226257,384.017426 499.738403,368.671814 
	C509.049988,358.096680 519.948486,349.816681 533.183899,345.104858 
	C552.698303,338.157593 569.823792,343.114197 586.112549,355.359619 
	C609.507446,372.947174 621.107849,397.104279 626.865417,424.674957 
	C629.621399,437.872406 631.074829,451.346802 632.984192,464.714905 
	C635.380615,481.493958 638.031494,498.249969 639.864319,515.093018 
	C642.489380,539.214905 649.051575,562.507935 653.627747,586.207642 
	C656.650208,601.861084 647.563477,615.863647 628.701721,621.000183 
	C620.631409,623.197937 612.510071,625.308594 604.630188,628.079468 
	C595.210876,631.391602 585.566528,630.986633 575.435486,630.977234 
z"/>
</svg>